<mxfile host="app.diagrams.net" agent="Mozilla/5.0 (Macintosh; Intel Mac OS X 10.15; rv:130.0) Gecko/20100101 Firefox/130.0" version="24.7.16">
  <diagram name="Page-1" id="9mXaGhHMtBzracjJgeNr">
    <mxGraphModel dx="5626" dy="3172" grid="1" gridSize="10" guides="1" tooltips="1" connect="1" arrows="1" fold="1" page="1" pageScale="1" pageWidth="850" pageHeight="1100" math="1" shadow="0">
      <root>
        <mxCell id="0" />
        <mxCell id="1" parent="0" />
        <mxCell id="kryiLPh3v4i8vplbUYYZ-1" value="" style="whiteSpace=wrap;html=1;aspect=fixed;fillColor=#009900;" vertex="1" parent="1">
          <mxGeometry x="360" y="360" width="80" height="80" as="geometry" />
        </mxCell>
        <mxCell id="kryiLPh3v4i8vplbUYYZ-2" value="" style="whiteSpace=wrap;html=1;aspect=fixed;fillColor=#009900;" vertex="1" parent="1">
          <mxGeometry x="440" y="360" width="80" height="80" as="geometry" />
        </mxCell>
        <mxCell id="kryiLPh3v4i8vplbUYYZ-3" value="" style="whiteSpace=wrap;html=1;aspect=fixed;fillColor=#009900;" vertex="1" parent="1">
          <mxGeometry x="520" y="360" width="80" height="80" as="geometry" />
        </mxCell>
        <mxCell id="kryiLPh3v4i8vplbUYYZ-4" value="" style="whiteSpace=wrap;html=1;aspect=fixed;fillColor=#1A1A1A;" vertex="1" parent="1">
          <mxGeometry x="600" y="360" width="80" height="80" as="geometry" />
        </mxCell>
        <mxCell id="kryiLPh3v4i8vplbUYYZ-5" value="" style="whiteSpace=wrap;html=1;aspect=fixed;fillColor=#999999;" vertex="1" parent="1">
          <mxGeometry x="680" y="360" width="80" height="80" as="geometry" />
        </mxCell>
        <mxCell id="kryiLPh3v4i8vplbUYYZ-6" value="" style="whiteSpace=wrap;html=1;aspect=fixed;fillColor=#999999;" vertex="1" parent="1">
          <mxGeometry x="760" y="360" width="80" height="80" as="geometry" />
        </mxCell>
        <mxCell id="kryiLPh3v4i8vplbUYYZ-8" value="" style="whiteSpace=wrap;html=1;aspect=fixed;fillColor=#009900;" vertex="1" parent="1">
          <mxGeometry x="200" y="360" width="80" height="80" as="geometry" />
        </mxCell>
        <mxCell id="kryiLPh3v4i8vplbUYYZ-9" value="" style="whiteSpace=wrap;html=1;aspect=fixed;fillColor=#009900;" vertex="1" parent="1">
          <mxGeometry x="280" y="360" width="80" height="80" as="geometry" />
        </mxCell>
        <mxCell id="kryiLPh3v4i8vplbUYYZ-10" value="" style="whiteSpace=wrap;html=1;aspect=fixed;fillColor=#009900;" vertex="1" parent="1">
          <mxGeometry x="360" y="440" width="80" height="80" as="geometry" />
        </mxCell>
        <mxCell id="kryiLPh3v4i8vplbUYYZ-11" value="" style="whiteSpace=wrap;html=1;aspect=fixed;fillColor=#009900;" vertex="1" parent="1">
          <mxGeometry x="440" y="440" width="80" height="80" as="geometry" />
        </mxCell>
        <mxCell id="kryiLPh3v4i8vplbUYYZ-12" value="" style="whiteSpace=wrap;html=1;aspect=fixed;fillColor=#1A1A1A;" vertex="1" parent="1">
          <mxGeometry x="520" y="440" width="80" height="80" as="geometry" />
        </mxCell>
        <mxCell id="kryiLPh3v4i8vplbUYYZ-13" value="" style="whiteSpace=wrap;html=1;aspect=fixed;fillColor=#999999;" vertex="1" parent="1">
          <mxGeometry x="600" y="440" width="80" height="80" as="geometry" />
        </mxCell>
        <mxCell id="kryiLPh3v4i8vplbUYYZ-14" value="" style="whiteSpace=wrap;html=1;aspect=fixed;fillColor=#999999;" vertex="1" parent="1">
          <mxGeometry x="680" y="440" width="80" height="80" as="geometry" />
        </mxCell>
        <mxCell id="kryiLPh3v4i8vplbUYYZ-15" value="" style="whiteSpace=wrap;html=1;aspect=fixed;fillColor=#999999;" vertex="1" parent="1">
          <mxGeometry x="760" y="440" width="80" height="80" as="geometry" />
        </mxCell>
        <mxCell id="kryiLPh3v4i8vplbUYYZ-16" value="" style="whiteSpace=wrap;html=1;aspect=fixed;fillColor=#009900;" vertex="1" parent="1">
          <mxGeometry x="200" y="440" width="80" height="80" as="geometry" />
        </mxCell>
        <mxCell id="kryiLPh3v4i8vplbUYYZ-17" value="" style="whiteSpace=wrap;html=1;aspect=fixed;fillColor=#009900;" vertex="1" parent="1">
          <mxGeometry x="280" y="440" width="80" height="80" as="geometry" />
        </mxCell>
        <mxCell id="kryiLPh3v4i8vplbUYYZ-18" value="" style="whiteSpace=wrap;html=1;aspect=fixed;fillColor=#009900;" vertex="1" parent="1">
          <mxGeometry x="360" y="520" width="80" height="80" as="geometry" />
        </mxCell>
        <mxCell id="kryiLPh3v4i8vplbUYYZ-19" value="" style="whiteSpace=wrap;html=1;aspect=fixed;fillColor=#1A1A1A;" vertex="1" parent="1">
          <mxGeometry x="440" y="520" width="80" height="80" as="geometry" />
        </mxCell>
        <mxCell id="kryiLPh3v4i8vplbUYYZ-20" value="" style="whiteSpace=wrap;html=1;aspect=fixed;fillColor=#999999;" vertex="1" parent="1">
          <mxGeometry x="520" y="520" width="80" height="80" as="geometry" />
        </mxCell>
        <mxCell id="kryiLPh3v4i8vplbUYYZ-21" value="" style="whiteSpace=wrap;html=1;aspect=fixed;fillColor=#999999;" vertex="1" parent="1">
          <mxGeometry x="600" y="520" width="80" height="80" as="geometry" />
        </mxCell>
        <mxCell id="kryiLPh3v4i8vplbUYYZ-22" value="" style="whiteSpace=wrap;html=1;aspect=fixed;fillColor=#999999;" vertex="1" parent="1">
          <mxGeometry x="680" y="520" width="80" height="80" as="geometry" />
        </mxCell>
        <mxCell id="kryiLPh3v4i8vplbUYYZ-23" value="" style="whiteSpace=wrap;html=1;aspect=fixed;fillColor=#999999;" vertex="1" parent="1">
          <mxGeometry x="760" y="520" width="80" height="80" as="geometry" />
        </mxCell>
        <mxCell id="kryiLPh3v4i8vplbUYYZ-24" value="" style="whiteSpace=wrap;html=1;aspect=fixed;fillColor=#009900;" vertex="1" parent="1">
          <mxGeometry x="200" y="520" width="80" height="80" as="geometry" />
        </mxCell>
        <mxCell id="kryiLPh3v4i8vplbUYYZ-25" value="" style="whiteSpace=wrap;html=1;aspect=fixed;fillColor=#009900;" vertex="1" parent="1">
          <mxGeometry x="280" y="520" width="80" height="80" as="geometry" />
        </mxCell>
        <mxCell id="kryiLPh3v4i8vplbUYYZ-26" value="" style="whiteSpace=wrap;html=1;aspect=fixed;fillColor=#1A1A1A;" vertex="1" parent="1">
          <mxGeometry x="360" y="600" width="80" height="80" as="geometry" />
        </mxCell>
        <mxCell id="kryiLPh3v4i8vplbUYYZ-27" value="" style="whiteSpace=wrap;html=1;aspect=fixed;fillColor=#1A1A1A;" vertex="1" parent="1">
          <mxGeometry x="440" y="600" width="80" height="80" as="geometry" />
        </mxCell>
        <mxCell id="kryiLPh3v4i8vplbUYYZ-28" value="" style="whiteSpace=wrap;html=1;aspect=fixed;fillColor=#999999;" vertex="1" parent="1">
          <mxGeometry x="520" y="600" width="80" height="80" as="geometry" />
        </mxCell>
        <mxCell id="kryiLPh3v4i8vplbUYYZ-29" value="" style="whiteSpace=wrap;html=1;aspect=fixed;fillColor=#999999;" vertex="1" parent="1">
          <mxGeometry x="600" y="600" width="80" height="80" as="geometry" />
        </mxCell>
        <mxCell id="kryiLPh3v4i8vplbUYYZ-30" value="" style="whiteSpace=wrap;html=1;aspect=fixed;fillColor=#999999;" vertex="1" parent="1">
          <mxGeometry x="680" y="600" width="80" height="80" as="geometry" />
        </mxCell>
        <mxCell id="kryiLPh3v4i8vplbUYYZ-31" value="" style="whiteSpace=wrap;html=1;aspect=fixed;fillColor=#999999;" vertex="1" parent="1">
          <mxGeometry x="760" y="600" width="80" height="80" as="geometry" />
        </mxCell>
        <mxCell id="kryiLPh3v4i8vplbUYYZ-32" value="" style="whiteSpace=wrap;html=1;aspect=fixed;fillColor=#003300;" vertex="1" parent="1">
          <mxGeometry x="200" y="600" width="80" height="80" as="geometry" />
        </mxCell>
        <mxCell id="kryiLPh3v4i8vplbUYYZ-33" value="" style="whiteSpace=wrap;html=1;aspect=fixed;fillColor=#003300;" vertex="1" parent="1">
          <mxGeometry x="280" y="600" width="80" height="80" as="geometry" />
        </mxCell>
        <mxCell id="kryiLPh3v4i8vplbUYYZ-66" value="" style="whiteSpace=wrap;html=1;aspect=fixed;fillColor=#1A1A1A;" vertex="1" parent="1">
          <mxGeometry x="360" y="680" width="80" height="80" as="geometry" />
        </mxCell>
        <mxCell id="kryiLPh3v4i8vplbUYYZ-67" value="" style="whiteSpace=wrap;html=1;aspect=fixed;fillColor=#999999;" vertex="1" parent="1">
          <mxGeometry x="440" y="680" width="80" height="80" as="geometry" />
        </mxCell>
        <mxCell id="kryiLPh3v4i8vplbUYYZ-68" value="" style="whiteSpace=wrap;html=1;aspect=fixed;fillColor=#999999;" vertex="1" parent="1">
          <mxGeometry x="520" y="680" width="80" height="80" as="geometry" />
        </mxCell>
        <mxCell id="kryiLPh3v4i8vplbUYYZ-69" value="" style="whiteSpace=wrap;html=1;aspect=fixed;fillColor=#999999;" vertex="1" parent="1">
          <mxGeometry x="600" y="680" width="80" height="80" as="geometry" />
        </mxCell>
        <mxCell id="kryiLPh3v4i8vplbUYYZ-70" value="" style="whiteSpace=wrap;html=1;aspect=fixed;fillColor=#999999;" vertex="1" parent="1">
          <mxGeometry x="680" y="680" width="80" height="80" as="geometry" />
        </mxCell>
        <mxCell id="kryiLPh3v4i8vplbUYYZ-71" value="" style="whiteSpace=wrap;html=1;aspect=fixed;fillColor=#999999;" vertex="1" parent="1">
          <mxGeometry x="760" y="680" width="80" height="80" as="geometry" />
        </mxCell>
        <mxCell id="kryiLPh3v4i8vplbUYYZ-72" value="" style="whiteSpace=wrap;html=1;aspect=fixed;fillColor=#003300;" vertex="1" parent="1">
          <mxGeometry x="200" y="680" width="80" height="80" as="geometry" />
        </mxCell>
        <mxCell id="kryiLPh3v4i8vplbUYYZ-73" value="" style="whiteSpace=wrap;html=1;aspect=fixed;fillColor=#1A1A1A;" vertex="1" parent="1">
          <mxGeometry x="280" y="680" width="80" height="80" as="geometry" />
        </mxCell>
        <mxCell id="kryiLPh3v4i8vplbUYYZ-74" value="" style="whiteSpace=wrap;html=1;aspect=fixed;fillColor=#999999;" vertex="1" parent="1">
          <mxGeometry x="360" y="760" width="80" height="80" as="geometry" />
        </mxCell>
        <mxCell id="kryiLPh3v4i8vplbUYYZ-75" value="" style="whiteSpace=wrap;html=1;aspect=fixed;fillColor=#999999;" vertex="1" parent="1">
          <mxGeometry x="440" y="760" width="80" height="80" as="geometry" />
        </mxCell>
        <mxCell id="kryiLPh3v4i8vplbUYYZ-76" value="" style="whiteSpace=wrap;html=1;aspect=fixed;fillColor=#999999;" vertex="1" parent="1">
          <mxGeometry x="520" y="760" width="80" height="80" as="geometry" />
        </mxCell>
        <mxCell id="kryiLPh3v4i8vplbUYYZ-77" value="" style="whiteSpace=wrap;html=1;aspect=fixed;fillColor=#999999;" vertex="1" parent="1">
          <mxGeometry x="600" y="760" width="80" height="80" as="geometry" />
        </mxCell>
        <mxCell id="kryiLPh3v4i8vplbUYYZ-78" value="" style="whiteSpace=wrap;html=1;aspect=fixed;fillColor=#999999;" vertex="1" parent="1">
          <mxGeometry x="680" y="760" width="80" height="80" as="geometry" />
        </mxCell>
        <mxCell id="kryiLPh3v4i8vplbUYYZ-79" value="" style="whiteSpace=wrap;html=1;aspect=fixed;fillColor=#999999;" vertex="1" parent="1">
          <mxGeometry x="760" y="760" width="80" height="80" as="geometry" />
        </mxCell>
        <mxCell id="kryiLPh3v4i8vplbUYYZ-80" value="" style="whiteSpace=wrap;html=1;aspect=fixed;fillColor=#003300;" vertex="1" parent="1">
          <mxGeometry x="200" y="760" width="80" height="80" as="geometry" />
        </mxCell>
        <mxCell id="kryiLPh3v4i8vplbUYYZ-81" value="" style="whiteSpace=wrap;html=1;aspect=fixed;fillColor=#1A1A1A;" vertex="1" parent="1">
          <mxGeometry x="280" y="760" width="80" height="80" as="geometry" />
        </mxCell>
        <mxCell id="kryiLPh3v4i8vplbUYYZ-82" value="" style="whiteSpace=wrap;html=1;aspect=fixed;fillColor=#999999;" vertex="1" parent="1">
          <mxGeometry x="360" y="840" width="80" height="80" as="geometry" />
        </mxCell>
        <mxCell id="kryiLPh3v4i8vplbUYYZ-83" value="" style="whiteSpace=wrap;html=1;aspect=fixed;fillColor=#999999;" vertex="1" parent="1">
          <mxGeometry x="440" y="840" width="80" height="80" as="geometry" />
        </mxCell>
        <mxCell id="kryiLPh3v4i8vplbUYYZ-84" value="" style="whiteSpace=wrap;html=1;aspect=fixed;fillColor=#999999;" vertex="1" parent="1">
          <mxGeometry x="520" y="840" width="80" height="80" as="geometry" />
        </mxCell>
        <mxCell id="kryiLPh3v4i8vplbUYYZ-85" value="" style="whiteSpace=wrap;html=1;aspect=fixed;fillColor=#999999;" vertex="1" parent="1">
          <mxGeometry x="600" y="840" width="80" height="80" as="geometry" />
        </mxCell>
        <mxCell id="kryiLPh3v4i8vplbUYYZ-86" value="" style="whiteSpace=wrap;html=1;aspect=fixed;fillColor=#999999;" vertex="1" parent="1">
          <mxGeometry x="680" y="840" width="80" height="80" as="geometry" />
        </mxCell>
        <mxCell id="kryiLPh3v4i8vplbUYYZ-87" value="" style="whiteSpace=wrap;html=1;aspect=fixed;fillColor=#999999;" vertex="1" parent="1">
          <mxGeometry x="760" y="840" width="80" height="80" as="geometry" />
        </mxCell>
        <mxCell id="kryiLPh3v4i8vplbUYYZ-88" value="" style="whiteSpace=wrap;html=1;aspect=fixed;fillColor=#003300;" vertex="1" parent="1">
          <mxGeometry x="200" y="840" width="80" height="80" as="geometry" />
        </mxCell>
        <mxCell id="kryiLPh3v4i8vplbUYYZ-89" value="" style="whiteSpace=wrap;html=1;aspect=fixed;fillColor=#1A1A1A;" vertex="1" parent="1">
          <mxGeometry x="280" y="840" width="80" height="80" as="geometry" />
        </mxCell>
        <mxCell id="kryiLPh3v4i8vplbUYYZ-90" value="" style="whiteSpace=wrap;html=1;aspect=fixed;fillColor=#999999;" vertex="1" parent="1">
          <mxGeometry x="360" y="920" width="80" height="80" as="geometry" />
        </mxCell>
        <mxCell id="kryiLPh3v4i8vplbUYYZ-91" value="" style="whiteSpace=wrap;html=1;aspect=fixed;fillColor=#999999;" vertex="1" parent="1">
          <mxGeometry x="440" y="920" width="80" height="80" as="geometry" />
        </mxCell>
        <mxCell id="kryiLPh3v4i8vplbUYYZ-92" value="" style="whiteSpace=wrap;html=1;aspect=fixed;fillColor=#999999;" vertex="1" parent="1">
          <mxGeometry x="520" y="920" width="80" height="80" as="geometry" />
        </mxCell>
        <mxCell id="kryiLPh3v4i8vplbUYYZ-93" value="" style="whiteSpace=wrap;html=1;aspect=fixed;fillColor=#1A1A1A;" vertex="1" parent="1">
          <mxGeometry x="600" y="920" width="80" height="80" as="geometry" />
        </mxCell>
        <mxCell id="kryiLPh3v4i8vplbUYYZ-94" value="" style="whiteSpace=wrap;html=1;aspect=fixed;fillColor=#1A1A1A;" vertex="1" parent="1">
          <mxGeometry x="680" y="920" width="80" height="80" as="geometry" />
        </mxCell>
        <mxCell id="kryiLPh3v4i8vplbUYYZ-95" value="" style="whiteSpace=wrap;html=1;aspect=fixed;fillColor=#1A1A1A;" vertex="1" parent="1">
          <mxGeometry x="760" y="920" width="80" height="80" as="geometry" />
        </mxCell>
        <mxCell id="kryiLPh3v4i8vplbUYYZ-96" value="" style="whiteSpace=wrap;html=1;aspect=fixed;fillColor=#1A1A1A;" vertex="1" parent="1">
          <mxGeometry x="200" y="920" width="80" height="80" as="geometry" />
        </mxCell>
        <mxCell id="kryiLPh3v4i8vplbUYYZ-97" value="" style="whiteSpace=wrap;html=1;aspect=fixed;fillColor=#1A1A1A;" vertex="1" parent="1">
          <mxGeometry x="280" y="920" width="80" height="80" as="geometry" />
        </mxCell>
        <mxCell id="kryiLPh3v4i8vplbUYYZ-98" value="" style="whiteSpace=wrap;html=1;aspect=fixed;fillColor=#999999;" vertex="1" parent="1">
          <mxGeometry x="360" y="1000" width="80" height="80" as="geometry" />
        </mxCell>
        <mxCell id="kryiLPh3v4i8vplbUYYZ-99" value="" style="whiteSpace=wrap;html=1;aspect=fixed;fillColor=#999999;" vertex="1" parent="1">
          <mxGeometry x="440" y="1000" width="80" height="80" as="geometry" />
        </mxCell>
        <mxCell id="kryiLPh3v4i8vplbUYYZ-100" value="" style="whiteSpace=wrap;html=1;aspect=fixed;fillColor=#999999;" vertex="1" parent="1">
          <mxGeometry x="520" y="1000" width="80" height="80" as="geometry" />
        </mxCell>
        <mxCell id="kryiLPh3v4i8vplbUYYZ-101" value="" style="whiteSpace=wrap;html=1;aspect=fixed;fillColor=#1A1A1A;" vertex="1" parent="1">
          <mxGeometry x="600" y="1000" width="80" height="80" as="geometry" />
        </mxCell>
        <mxCell id="kryiLPh3v4i8vplbUYYZ-102" value="" style="whiteSpace=wrap;html=1;aspect=fixed;fillColor=#CC0000;" vertex="1" parent="1">
          <mxGeometry x="680" y="1000" width="80" height="80" as="geometry" />
        </mxCell>
        <mxCell id="kryiLPh3v4i8vplbUYYZ-103" value="" style="whiteSpace=wrap;html=1;aspect=fixed;fillColor=#CC0000;" vertex="1" parent="1">
          <mxGeometry x="760" y="1000" width="80" height="80" as="geometry" />
        </mxCell>
        <mxCell id="kryiLPh3v4i8vplbUYYZ-104" value="" style="whiteSpace=wrap;html=1;aspect=fixed;fillColor=#1A1A1A;" vertex="1" parent="1">
          <mxGeometry x="200" y="1000" width="80" height="80" as="geometry" />
        </mxCell>
        <mxCell id="kryiLPh3v4i8vplbUYYZ-105" value="" style="whiteSpace=wrap;html=1;aspect=fixed;fillColor=#999999;" vertex="1" parent="1">
          <mxGeometry x="280" y="1000" width="80" height="80" as="geometry" />
        </mxCell>
        <mxCell id="kryiLPh3v4i8vplbUYYZ-106" value="" style="whiteSpace=wrap;html=1;aspect=fixed;fillColor=#999999;" vertex="1" parent="1">
          <mxGeometry x="360" y="1080" width="80" height="80" as="geometry" />
        </mxCell>
        <mxCell id="kryiLPh3v4i8vplbUYYZ-107" value="" style="whiteSpace=wrap;html=1;aspect=fixed;fillColor=#999999;" vertex="1" parent="1">
          <mxGeometry x="440" y="1080" width="80" height="80" as="geometry" />
        </mxCell>
        <mxCell id="kryiLPh3v4i8vplbUYYZ-108" value="" style="whiteSpace=wrap;html=1;aspect=fixed;fillColor=#1A1A1A;" vertex="1" parent="1">
          <mxGeometry x="520" y="1080" width="80" height="80" as="geometry" />
        </mxCell>
        <mxCell id="kryiLPh3v4i8vplbUYYZ-109" value="" style="whiteSpace=wrap;html=1;aspect=fixed;fillColor=#1A1A1A;" vertex="1" parent="1">
          <mxGeometry x="600" y="1080" width="80" height="80" as="geometry" />
        </mxCell>
        <mxCell id="kryiLPh3v4i8vplbUYYZ-110" value="" style="whiteSpace=wrap;html=1;aspect=fixed;fillColor=#CC0000;" vertex="1" parent="1">
          <mxGeometry x="680" y="1080" width="80" height="80" as="geometry" />
        </mxCell>
        <mxCell id="kryiLPh3v4i8vplbUYYZ-111" value="" style="whiteSpace=wrap;html=1;aspect=fixed;fillColor=#CC0000;" vertex="1" parent="1">
          <mxGeometry x="760" y="1080" width="80" height="80" as="geometry" />
        </mxCell>
        <mxCell id="kryiLPh3v4i8vplbUYYZ-112" value="" style="whiteSpace=wrap;html=1;aspect=fixed;fillColor=#999999;" vertex="1" parent="1">
          <mxGeometry x="200" y="1080" width="80" height="80" as="geometry" />
        </mxCell>
        <mxCell id="kryiLPh3v4i8vplbUYYZ-113" value="" style="whiteSpace=wrap;html=1;aspect=fixed;fillColor=#999999;" vertex="1" parent="1">
          <mxGeometry x="280" y="1080" width="80" height="80" as="geometry" />
        </mxCell>
        <mxCell id="kryiLPh3v4i8vplbUYYZ-114" value="" style="whiteSpace=wrap;html=1;aspect=fixed;fillColor=#999999;" vertex="1" parent="1">
          <mxGeometry x="360" y="1160" width="80" height="80" as="geometry" />
        </mxCell>
        <mxCell id="kryiLPh3v4i8vplbUYYZ-115" value="" style="whiteSpace=wrap;html=1;aspect=fixed;fillColor=#1A1A1A;" vertex="1" parent="1">
          <mxGeometry x="440" y="1160" width="80" height="80" as="geometry" />
        </mxCell>
        <mxCell id="kryiLPh3v4i8vplbUYYZ-116" value="" style="whiteSpace=wrap;html=1;aspect=fixed;fillColor=#1A1A1A;" vertex="1" parent="1">
          <mxGeometry x="520" y="1160" width="80" height="80" as="geometry" />
        </mxCell>
        <mxCell id="kryiLPh3v4i8vplbUYYZ-117" value="" style="whiteSpace=wrap;html=1;aspect=fixed;fillColor=#1A1A1A;" vertex="1" parent="1">
          <mxGeometry x="600" y="1160" width="80" height="80" as="geometry" />
        </mxCell>
        <mxCell id="kryiLPh3v4i8vplbUYYZ-118" value="" style="whiteSpace=wrap;html=1;aspect=fixed;fillColor=#CC0000;" vertex="1" parent="1">
          <mxGeometry x="680" y="1160" width="80" height="80" as="geometry" />
        </mxCell>
        <mxCell id="kryiLPh3v4i8vplbUYYZ-119" value="" style="whiteSpace=wrap;html=1;aspect=fixed;fillColor=#CC0000;" vertex="1" parent="1">
          <mxGeometry x="760" y="1160" width="80" height="80" as="geometry" />
        </mxCell>
        <mxCell id="kryiLPh3v4i8vplbUYYZ-120" value="" style="whiteSpace=wrap;html=1;aspect=fixed;fillColor=#999999;" vertex="1" parent="1">
          <mxGeometry x="200" y="1160" width="80" height="80" as="geometry" />
        </mxCell>
        <mxCell id="kryiLPh3v4i8vplbUYYZ-121" value="" style="whiteSpace=wrap;html=1;aspect=fixed;fillColor=#999999;" vertex="1" parent="1">
          <mxGeometry x="280" y="1160" width="80" height="80" as="geometry" />
        </mxCell>
        <mxCell id="kryiLPh3v4i8vplbUYYZ-130" value="" style="whiteSpace=wrap;html=1;aspect=fixed;fillColor=#009900;" vertex="1" parent="1">
          <mxGeometry x="120" y="360" width="80" height="80" as="geometry" />
        </mxCell>
        <mxCell id="kryiLPh3v4i8vplbUYYZ-131" value="" style="whiteSpace=wrap;html=1;aspect=fixed;fillColor=#009900;" vertex="1" parent="1">
          <mxGeometry x="-40" y="360" width="80" height="80" as="geometry" />
        </mxCell>
        <mxCell id="kryiLPh3v4i8vplbUYYZ-132" value="" style="whiteSpace=wrap;html=1;aspect=fixed;fillColor=#009900;" vertex="1" parent="1">
          <mxGeometry x="40" y="360" width="80" height="80" as="geometry" />
        </mxCell>
        <mxCell id="kryiLPh3v4i8vplbUYYZ-133" value="" style="whiteSpace=wrap;html=1;aspect=fixed;fillColor=#009900;" vertex="1" parent="1">
          <mxGeometry x="120" y="440" width="80" height="80" as="geometry" />
        </mxCell>
        <mxCell id="kryiLPh3v4i8vplbUYYZ-134" value="" style="whiteSpace=wrap;html=1;aspect=fixed;fillColor=#009900;" vertex="1" parent="1">
          <mxGeometry x="-40" y="440" width="80" height="80" as="geometry" />
        </mxCell>
        <mxCell id="kryiLPh3v4i8vplbUYYZ-135" value="" style="whiteSpace=wrap;html=1;aspect=fixed;fillColor=#009900;" vertex="1" parent="1">
          <mxGeometry x="40" y="440" width="80" height="80" as="geometry" />
        </mxCell>
        <mxCell id="kryiLPh3v4i8vplbUYYZ-136" value="" style="whiteSpace=wrap;html=1;aspect=fixed;fillColor=#009900;" vertex="1" parent="1">
          <mxGeometry x="120" y="520" width="80" height="80" as="geometry" />
        </mxCell>
        <mxCell id="kryiLPh3v4i8vplbUYYZ-137" value="" style="whiteSpace=wrap;html=1;aspect=fixed;fillColor=#009900;" vertex="1" parent="1">
          <mxGeometry x="-40" y="520" width="80" height="80" as="geometry" />
        </mxCell>
        <mxCell id="kryiLPh3v4i8vplbUYYZ-138" value="" style="whiteSpace=wrap;html=1;aspect=fixed;fillColor=#009900;" vertex="1" parent="1">
          <mxGeometry x="40" y="520" width="80" height="80" as="geometry" />
        </mxCell>
        <mxCell id="kryiLPh3v4i8vplbUYYZ-139" value="" style="whiteSpace=wrap;html=1;aspect=fixed;fillColor=#009900;" vertex="1" parent="1">
          <mxGeometry x="120" y="600" width="80" height="80" as="geometry" />
        </mxCell>
        <mxCell id="kryiLPh3v4i8vplbUYYZ-140" value="" style="whiteSpace=wrap;html=1;aspect=fixed;fillColor=#009900;" vertex="1" parent="1">
          <mxGeometry x="-40" y="600" width="80" height="80" as="geometry" />
        </mxCell>
        <mxCell id="kryiLPh3v4i8vplbUYYZ-141" value="" style="whiteSpace=wrap;html=1;aspect=fixed;fillColor=#009900;" vertex="1" parent="1">
          <mxGeometry x="40" y="600" width="80" height="80" as="geometry" />
        </mxCell>
        <mxCell id="kryiLPh3v4i8vplbUYYZ-142" value="" style="whiteSpace=wrap;html=1;aspect=fixed;fillColor=#003300;" vertex="1" parent="1">
          <mxGeometry x="120" y="680" width="80" height="80" as="geometry" />
        </mxCell>
        <mxCell id="kryiLPh3v4i8vplbUYYZ-143" value="" style="whiteSpace=wrap;html=1;aspect=fixed;fillColor=#009900;" vertex="1" parent="1">
          <mxGeometry x="-40" y="680" width="80" height="80" as="geometry" />
        </mxCell>
        <mxCell id="kryiLPh3v4i8vplbUYYZ-144" value="" style="whiteSpace=wrap;html=1;aspect=fixed;fillColor=#009900;" vertex="1" parent="1">
          <mxGeometry x="40" y="680" width="80" height="80" as="geometry" />
        </mxCell>
        <mxCell id="kryiLPh3v4i8vplbUYYZ-145" value="" style="whiteSpace=wrap;html=1;aspect=fixed;fillColor=#003300;" vertex="1" parent="1">
          <mxGeometry x="120" y="760" width="80" height="80" as="geometry" />
        </mxCell>
        <mxCell id="kryiLPh3v4i8vplbUYYZ-146" value="" style="whiteSpace=wrap;html=1;aspect=fixed;fillColor=#003300;" vertex="1" parent="1">
          <mxGeometry x="-40" y="760" width="80" height="80" as="geometry" />
        </mxCell>
        <mxCell id="kryiLPh3v4i8vplbUYYZ-147" value="" style="whiteSpace=wrap;html=1;aspect=fixed;fillColor=#003300;" vertex="1" parent="1">
          <mxGeometry x="40" y="760" width="80" height="80" as="geometry" />
        </mxCell>
        <mxCell id="kryiLPh3v4i8vplbUYYZ-148" value="" style="whiteSpace=wrap;html=1;aspect=fixed;fillColor=#003300;" vertex="1" parent="1">
          <mxGeometry x="120" y="840" width="80" height="80" as="geometry" />
        </mxCell>
        <mxCell id="kryiLPh3v4i8vplbUYYZ-149" value="" style="whiteSpace=wrap;html=1;aspect=fixed;fillColor=#003300;" vertex="1" parent="1">
          <mxGeometry x="-40" y="840" width="80" height="80" as="geometry" />
        </mxCell>
        <mxCell id="kryiLPh3v4i8vplbUYYZ-150" value="" style="whiteSpace=wrap;html=1;aspect=fixed;fillColor=#003300;" vertex="1" parent="1">
          <mxGeometry x="40" y="840" width="80" height="80" as="geometry" />
        </mxCell>
        <mxCell id="kryiLPh3v4i8vplbUYYZ-151" value="" style="whiteSpace=wrap;html=1;aspect=fixed;fillColor=#003300;" vertex="1" parent="1">
          <mxGeometry x="120" y="920" width="80" height="80" as="geometry" />
        </mxCell>
        <mxCell id="kryiLPh3v4i8vplbUYYZ-152" value="" style="whiteSpace=wrap;html=1;aspect=fixed;strokeColor=#000000;fillColor=#003300;" vertex="1" parent="1">
          <mxGeometry x="-40" y="920" width="80" height="80" as="geometry" />
        </mxCell>
        <mxCell id="kryiLPh3v4i8vplbUYYZ-153" value="" style="whiteSpace=wrap;html=1;aspect=fixed;fillColor=#003300;" vertex="1" parent="1">
          <mxGeometry x="40" y="920" width="80" height="80" as="geometry" />
        </mxCell>
        <mxCell id="kryiLPh3v4i8vplbUYYZ-154" value="" style="whiteSpace=wrap;html=1;aspect=fixed;fillColor=#1A1A1A;" vertex="1" parent="1">
          <mxGeometry x="120" y="1000" width="80" height="80" as="geometry" />
        </mxCell>
        <mxCell id="kryiLPh3v4i8vplbUYYZ-155" value="" style="whiteSpace=wrap;html=1;aspect=fixed;fillColor=#003300;" vertex="1" parent="1">
          <mxGeometry x="-40" y="1000" width="80" height="80" as="geometry" />
        </mxCell>
        <mxCell id="kryiLPh3v4i8vplbUYYZ-156" value="" style="whiteSpace=wrap;html=1;aspect=fixed;fillColor=#003300;" vertex="1" parent="1">
          <mxGeometry x="40" y="1000" width="80" height="80" as="geometry" />
        </mxCell>
        <mxCell id="kryiLPh3v4i8vplbUYYZ-157" value="" style="whiteSpace=wrap;html=1;aspect=fixed;fillColor=#1A1A1A;" vertex="1" parent="1">
          <mxGeometry x="120" y="1080" width="80" height="80" as="geometry" />
        </mxCell>
        <mxCell id="kryiLPh3v4i8vplbUYYZ-158" value="" style="whiteSpace=wrap;html=1;aspect=fixed;fillColor=#003300;" vertex="1" parent="1">
          <mxGeometry x="-40" y="1080" width="80" height="80" as="geometry" />
        </mxCell>
        <mxCell id="kryiLPh3v4i8vplbUYYZ-159" value="" style="whiteSpace=wrap;html=1;aspect=fixed;fillColor=#1A1A1A;" vertex="1" parent="1">
          <mxGeometry x="40" y="1080" width="80" height="80" as="geometry" />
        </mxCell>
        <mxCell id="kryiLPh3v4i8vplbUYYZ-160" value="" style="whiteSpace=wrap;html=1;aspect=fixed;fillColor=#1A1A1A;" vertex="1" parent="1">
          <mxGeometry x="120" y="1160" width="80" height="80" as="geometry" />
        </mxCell>
        <mxCell id="kryiLPh3v4i8vplbUYYZ-161" value="" style="whiteSpace=wrap;html=1;aspect=fixed;fillColor=#003300;" vertex="1" parent="1">
          <mxGeometry x="-40" y="1160" width="80" height="80" as="geometry" />
        </mxCell>
        <mxCell id="kryiLPh3v4i8vplbUYYZ-162" value="" style="whiteSpace=wrap;html=1;aspect=fixed;fillColor=#1A1A1A;" vertex="1" parent="1">
          <mxGeometry x="40" y="1160" width="80" height="80" as="geometry" />
        </mxCell>
        <mxCell id="kryiLPh3v4i8vplbUYYZ-284" value="" style="whiteSpace=wrap;html=1;aspect=fixed;fillColor=#009900;" vertex="1" parent="1">
          <mxGeometry x="360" y="1320" width="80" height="80" as="geometry" />
        </mxCell>
        <mxCell id="kryiLPh3v4i8vplbUYYZ-285" value="" style="whiteSpace=wrap;html=1;aspect=fixed;fillColor=#009900;" vertex="1" parent="1">
          <mxGeometry x="440" y="1320" width="80" height="80" as="geometry" />
        </mxCell>
        <mxCell id="kryiLPh3v4i8vplbUYYZ-286" value="" style="whiteSpace=wrap;html=1;aspect=fixed;fillColor=#009900;" vertex="1" parent="1">
          <mxGeometry x="520" y="1320" width="80" height="80" as="geometry" />
        </mxCell>
        <mxCell id="kryiLPh3v4i8vplbUYYZ-287" value="" style="whiteSpace=wrap;html=1;aspect=fixed;fillColor=#1A1A1A;" vertex="1" parent="1">
          <mxGeometry x="600" y="1320" width="80" height="80" as="geometry" />
        </mxCell>
        <mxCell id="kryiLPh3v4i8vplbUYYZ-288" value="" style="whiteSpace=wrap;html=1;aspect=fixed;fillColor=#000000;" vertex="1" parent="1">
          <mxGeometry x="680" y="1320" width="80" height="80" as="geometry" />
        </mxCell>
        <mxCell id="kryiLPh3v4i8vplbUYYZ-289" value="" style="whiteSpace=wrap;html=1;aspect=fixed;fillColor=#000000;" vertex="1" parent="1">
          <mxGeometry x="760" y="1320" width="80" height="80" as="geometry" />
        </mxCell>
        <mxCell id="kryiLPh3v4i8vplbUYYZ-290" value="" style="whiteSpace=wrap;html=1;aspect=fixed;fillColor=#009900;" vertex="1" parent="1">
          <mxGeometry x="200" y="1320" width="80" height="80" as="geometry" />
        </mxCell>
        <mxCell id="kryiLPh3v4i8vplbUYYZ-291" value="" style="whiteSpace=wrap;html=1;aspect=fixed;fillColor=#009900;" vertex="1" parent="1">
          <mxGeometry x="280" y="1320" width="80" height="80" as="geometry" />
        </mxCell>
        <mxCell id="kryiLPh3v4i8vplbUYYZ-292" value="" style="whiteSpace=wrap;html=1;aspect=fixed;fillColor=#009900;" vertex="1" parent="1">
          <mxGeometry x="360" y="1400" width="80" height="80" as="geometry" />
        </mxCell>
        <mxCell id="kryiLPh3v4i8vplbUYYZ-293" value="" style="whiteSpace=wrap;html=1;aspect=fixed;fillColor=#009900;" vertex="1" parent="1">
          <mxGeometry x="440" y="1400" width="80" height="80" as="geometry" />
        </mxCell>
        <mxCell id="kryiLPh3v4i8vplbUYYZ-294" value="" style="whiteSpace=wrap;html=1;aspect=fixed;fillColor=#1A1A1A;" vertex="1" parent="1">
          <mxGeometry x="520" y="1400" width="80" height="80" as="geometry" />
        </mxCell>
        <mxCell id="kryiLPh3v4i8vplbUYYZ-295" value="" style="whiteSpace=wrap;html=1;aspect=fixed;fillColor=#000000;" vertex="1" parent="1">
          <mxGeometry x="601" y="1400" width="80" height="80" as="geometry" />
        </mxCell>
        <mxCell id="kryiLPh3v4i8vplbUYYZ-296" value="" style="whiteSpace=wrap;html=1;aspect=fixed;fillColor=#999999;" vertex="1" parent="1">
          <mxGeometry x="680" y="1400" width="80" height="80" as="geometry" />
        </mxCell>
        <mxCell id="kryiLPh3v4i8vplbUYYZ-297" value="" style="whiteSpace=wrap;html=1;aspect=fixed;fillColor=#999999;" vertex="1" parent="1">
          <mxGeometry x="760" y="1400" width="80" height="80" as="geometry" />
        </mxCell>
        <mxCell id="kryiLPh3v4i8vplbUYYZ-298" value="" style="whiteSpace=wrap;html=1;aspect=fixed;fillColor=#009900;" vertex="1" parent="1">
          <mxGeometry x="200" y="1400" width="80" height="80" as="geometry" />
        </mxCell>
        <mxCell id="kryiLPh3v4i8vplbUYYZ-299" value="" style="whiteSpace=wrap;html=1;aspect=fixed;fillColor=#009900;" vertex="1" parent="1">
          <mxGeometry x="280" y="1400" width="80" height="80" as="geometry" />
        </mxCell>
        <mxCell id="kryiLPh3v4i8vplbUYYZ-300" value="" style="whiteSpace=wrap;html=1;aspect=fixed;fillColor=#009900;" vertex="1" parent="1">
          <mxGeometry x="360" y="1480" width="80" height="80" as="geometry" />
        </mxCell>
        <mxCell id="kryiLPh3v4i8vplbUYYZ-301" value="" style="whiteSpace=wrap;html=1;aspect=fixed;fillColor=#1A1A1A;" vertex="1" parent="1">
          <mxGeometry x="440" y="1480" width="80" height="80" as="geometry" />
        </mxCell>
        <mxCell id="kryiLPh3v4i8vplbUYYZ-302" value="" style="whiteSpace=wrap;html=1;aspect=fixed;fillColor=#999999;" vertex="1" parent="1">
          <mxGeometry x="520" y="1480" width="80" height="80" as="geometry" />
        </mxCell>
        <mxCell id="kryiLPh3v4i8vplbUYYZ-303" value="" style="whiteSpace=wrap;html=1;aspect=fixed;fillColor=#999999;" vertex="1" parent="1">
          <mxGeometry x="600" y="1480" width="80" height="80" as="geometry" />
        </mxCell>
        <mxCell id="kryiLPh3v4i8vplbUYYZ-304" value="" style="whiteSpace=wrap;html=1;aspect=fixed;fillColor=#999999;" vertex="1" parent="1">
          <mxGeometry x="680" y="1480" width="80" height="80" as="geometry" />
        </mxCell>
        <mxCell id="kryiLPh3v4i8vplbUYYZ-305" value="" style="whiteSpace=wrap;html=1;aspect=fixed;fillColor=#999999;" vertex="1" parent="1">
          <mxGeometry x="760" y="1480" width="80" height="80" as="geometry" />
        </mxCell>
        <mxCell id="kryiLPh3v4i8vplbUYYZ-306" value="" style="whiteSpace=wrap;html=1;aspect=fixed;fillColor=#009900;" vertex="1" parent="1">
          <mxGeometry x="200" y="1480" width="80" height="80" as="geometry" />
        </mxCell>
        <mxCell id="kryiLPh3v4i8vplbUYYZ-307" value="" style="whiteSpace=wrap;html=1;aspect=fixed;fillColor=#009900;" vertex="1" parent="1">
          <mxGeometry x="280" y="1480" width="80" height="80" as="geometry" />
        </mxCell>
        <mxCell id="kryiLPh3v4i8vplbUYYZ-308" value="" style="whiteSpace=wrap;html=1;aspect=fixed;fillColor=#1A1A1A;" vertex="1" parent="1">
          <mxGeometry x="360" y="1560" width="80" height="80" as="geometry" />
        </mxCell>
        <mxCell id="kryiLPh3v4i8vplbUYYZ-309" value="" style="whiteSpace=wrap;html=1;aspect=fixed;fillColor=#1A1A1A;" vertex="1" parent="1">
          <mxGeometry x="440" y="1560" width="80" height="80" as="geometry" />
        </mxCell>
        <mxCell id="kryiLPh3v4i8vplbUYYZ-310" value="" style="whiteSpace=wrap;html=1;aspect=fixed;fillColor=#999999;" vertex="1" parent="1">
          <mxGeometry x="520" y="1560" width="80" height="80" as="geometry" />
        </mxCell>
        <mxCell id="kryiLPh3v4i8vplbUYYZ-311" value="" style="whiteSpace=wrap;html=1;aspect=fixed;fillColor=#999999;" vertex="1" parent="1">
          <mxGeometry x="600" y="1560" width="80" height="80" as="geometry" />
        </mxCell>
        <mxCell id="kryiLPh3v4i8vplbUYYZ-312" value="" style="whiteSpace=wrap;html=1;aspect=fixed;fillColor=#999999;" vertex="1" parent="1">
          <mxGeometry x="680" y="1560" width="80" height="80" as="geometry" />
        </mxCell>
        <mxCell id="kryiLPh3v4i8vplbUYYZ-313" value="" style="whiteSpace=wrap;html=1;aspect=fixed;fillColor=#000000;" vertex="1" parent="1">
          <mxGeometry x="760" y="1560" width="80" height="80" as="geometry" />
        </mxCell>
        <mxCell id="kryiLPh3v4i8vplbUYYZ-314" value="" style="whiteSpace=wrap;html=1;aspect=fixed;fillColor=#003300;" vertex="1" parent="1">
          <mxGeometry x="200" y="1560" width="80" height="80" as="geometry" />
        </mxCell>
        <mxCell id="kryiLPh3v4i8vplbUYYZ-315" value="" style="whiteSpace=wrap;html=1;aspect=fixed;fillColor=#003300;" vertex="1" parent="1">
          <mxGeometry x="280" y="1560" width="80" height="80" as="geometry" />
        </mxCell>
        <mxCell id="kryiLPh3v4i8vplbUYYZ-316" value="" style="whiteSpace=wrap;html=1;aspect=fixed;fillColor=#1A1A1A;" vertex="1" parent="1">
          <mxGeometry x="360" y="1640" width="80" height="80" as="geometry" />
        </mxCell>
        <mxCell id="kryiLPh3v4i8vplbUYYZ-317" value="" style="whiteSpace=wrap;html=1;aspect=fixed;fillColor=#999999;" vertex="1" parent="1">
          <mxGeometry x="440" y="1640" width="80" height="80" as="geometry" />
        </mxCell>
        <mxCell id="kryiLPh3v4i8vplbUYYZ-318" value="" style="whiteSpace=wrap;html=1;aspect=fixed;fillColor=#999999;" vertex="1" parent="1">
          <mxGeometry x="520" y="1640" width="80" height="80" as="geometry" />
        </mxCell>
        <mxCell id="kryiLPh3v4i8vplbUYYZ-319" value="" style="whiteSpace=wrap;html=1;aspect=fixed;fillColor=#999999;" vertex="1" parent="1">
          <mxGeometry x="600" y="1640" width="80" height="80" as="geometry" />
        </mxCell>
        <mxCell id="kryiLPh3v4i8vplbUYYZ-320" value="" style="whiteSpace=wrap;html=1;aspect=fixed;fillColor=#000000;" vertex="1" parent="1">
          <mxGeometry x="680" y="1640" width="80" height="80" as="geometry" />
        </mxCell>
        <mxCell id="kryiLPh3v4i8vplbUYYZ-321" value="" style="whiteSpace=wrap;html=1;aspect=fixed;fillColor=#CC0000;" vertex="1" parent="1">
          <mxGeometry x="760" y="1640" width="80" height="80" as="geometry" />
        </mxCell>
        <mxCell id="kryiLPh3v4i8vplbUYYZ-322" value="" style="whiteSpace=wrap;html=1;aspect=fixed;fillColor=#003300;" vertex="1" parent="1">
          <mxGeometry x="200" y="1640" width="80" height="80" as="geometry" />
        </mxCell>
        <mxCell id="kryiLPh3v4i8vplbUYYZ-323" value="" style="whiteSpace=wrap;html=1;aspect=fixed;fillColor=#1A1A1A;" vertex="1" parent="1">
          <mxGeometry x="280" y="1640" width="80" height="80" as="geometry" />
        </mxCell>
        <mxCell id="kryiLPh3v4i8vplbUYYZ-324" value="" style="whiteSpace=wrap;html=1;aspect=fixed;fillColor=#999999;" vertex="1" parent="1">
          <mxGeometry x="360" y="1720" width="80" height="80" as="geometry" />
        </mxCell>
        <mxCell id="kryiLPh3v4i8vplbUYYZ-325" value="" style="whiteSpace=wrap;html=1;aspect=fixed;fillColor=#999999;" vertex="1" parent="1">
          <mxGeometry x="440" y="1720" width="80" height="80" as="geometry" />
        </mxCell>
        <mxCell id="kryiLPh3v4i8vplbUYYZ-326" value="" style="whiteSpace=wrap;html=1;aspect=fixed;fillColor=#999999;" vertex="1" parent="1">
          <mxGeometry x="520" y="1720" width="80" height="80" as="geometry" />
        </mxCell>
        <mxCell id="kryiLPh3v4i8vplbUYYZ-327" value="" style="whiteSpace=wrap;html=1;aspect=fixed;fillColor=#999999;" vertex="1" parent="1">
          <mxGeometry x="600" y="1720" width="80" height="80" as="geometry" />
        </mxCell>
        <mxCell id="kryiLPh3v4i8vplbUYYZ-328" value="" style="whiteSpace=wrap;html=1;aspect=fixed;fillColor=#000000;" vertex="1" parent="1">
          <mxGeometry x="680" y="1720" width="80" height="80" as="geometry" />
        </mxCell>
        <mxCell id="kryiLPh3v4i8vplbUYYZ-329" value="" style="whiteSpace=wrap;html=1;aspect=fixed;fillColor=#CC0000;" vertex="1" parent="1">
          <mxGeometry x="760" y="1720" width="80" height="80" as="geometry" />
        </mxCell>
        <mxCell id="kryiLPh3v4i8vplbUYYZ-330" value="" style="whiteSpace=wrap;html=1;aspect=fixed;fillColor=#003300;" vertex="1" parent="1">
          <mxGeometry x="200" y="1720" width="80" height="80" as="geometry" />
        </mxCell>
        <mxCell id="kryiLPh3v4i8vplbUYYZ-331" value="" style="whiteSpace=wrap;html=1;aspect=fixed;fillColor=#1A1A1A;" vertex="1" parent="1">
          <mxGeometry x="280" y="1720" width="80" height="80" as="geometry" />
        </mxCell>
        <mxCell id="kryiLPh3v4i8vplbUYYZ-332" value="" style="whiteSpace=wrap;html=1;aspect=fixed;fillColor=#999999;" vertex="1" parent="1">
          <mxGeometry x="360" y="1800" width="80" height="80" as="geometry" />
        </mxCell>
        <mxCell id="kryiLPh3v4i8vplbUYYZ-333" value="" style="whiteSpace=wrap;html=1;aspect=fixed;fillColor=#999999;" vertex="1" parent="1">
          <mxGeometry x="440" y="1800" width="80" height="80" as="geometry" />
        </mxCell>
        <mxCell id="kryiLPh3v4i8vplbUYYZ-334" value="" style="whiteSpace=wrap;html=1;aspect=fixed;fillColor=#999999;" vertex="1" parent="1">
          <mxGeometry x="520" y="1800" width="80" height="80" as="geometry" />
        </mxCell>
        <mxCell id="kryiLPh3v4i8vplbUYYZ-335" value="" style="whiteSpace=wrap;html=1;aspect=fixed;fillColor=#999999;" vertex="1" parent="1">
          <mxGeometry x="600" y="1800" width="80" height="80" as="geometry" />
        </mxCell>
        <mxCell id="kryiLPh3v4i8vplbUYYZ-336" value="" style="whiteSpace=wrap;html=1;aspect=fixed;fillColor=#000000;" vertex="1" parent="1">
          <mxGeometry x="680" y="1800" width="80" height="80" as="geometry" />
        </mxCell>
        <mxCell id="kryiLPh3v4i8vplbUYYZ-337" value="" style="whiteSpace=wrap;html=1;aspect=fixed;fillColor=#CC0000;" vertex="1" parent="1">
          <mxGeometry x="760" y="1800" width="80" height="80" as="geometry" />
        </mxCell>
        <mxCell id="kryiLPh3v4i8vplbUYYZ-338" value="" style="whiteSpace=wrap;html=1;aspect=fixed;fillColor=#003300;" vertex="1" parent="1">
          <mxGeometry x="200" y="1800" width="80" height="80" as="geometry" />
        </mxCell>
        <mxCell id="kryiLPh3v4i8vplbUYYZ-339" value="" style="whiteSpace=wrap;html=1;aspect=fixed;fillColor=#1A1A1A;" vertex="1" parent="1">
          <mxGeometry x="280" y="1800" width="80" height="80" as="geometry" />
        </mxCell>
        <mxCell id="kryiLPh3v4i8vplbUYYZ-340" value="" style="whiteSpace=wrap;html=1;aspect=fixed;fillColor=#999999;" vertex="1" parent="1">
          <mxGeometry x="360" y="1880" width="80" height="80" as="geometry" />
        </mxCell>
        <mxCell id="kryiLPh3v4i8vplbUYYZ-341" value="" style="whiteSpace=wrap;html=1;aspect=fixed;fillColor=#999999;" vertex="1" parent="1">
          <mxGeometry x="440" y="1880" width="80" height="80" as="geometry" />
        </mxCell>
        <mxCell id="kryiLPh3v4i8vplbUYYZ-342" value="" style="whiteSpace=wrap;html=1;aspect=fixed;fillColor=#999999;" vertex="1" parent="1">
          <mxGeometry x="520" y="1880" width="80" height="80" as="geometry" />
        </mxCell>
        <mxCell id="kryiLPh3v4i8vplbUYYZ-343" value="" style="whiteSpace=wrap;html=1;aspect=fixed;fillColor=#1A1A1A;" vertex="1" parent="1">
          <mxGeometry x="600" y="1880" width="80" height="80" as="geometry" />
        </mxCell>
        <mxCell id="kryiLPh3v4i8vplbUYYZ-344" value="" style="whiteSpace=wrap;html=1;aspect=fixed;fillColor=#1A1A1A;" vertex="1" parent="1">
          <mxGeometry x="680" y="1880" width="80" height="80" as="geometry" />
        </mxCell>
        <mxCell id="kryiLPh3v4i8vplbUYYZ-345" value="" style="whiteSpace=wrap;html=1;aspect=fixed;fillColor=#CC0000;" vertex="1" parent="1">
          <mxGeometry x="760" y="1880" width="80" height="80" as="geometry" />
        </mxCell>
        <mxCell id="kryiLPh3v4i8vplbUYYZ-346" value="" style="whiteSpace=wrap;html=1;aspect=fixed;fillColor=#1A1A1A;" vertex="1" parent="1">
          <mxGeometry x="200" y="1880" width="80" height="80" as="geometry" />
        </mxCell>
        <mxCell id="kryiLPh3v4i8vplbUYYZ-347" value="" style="whiteSpace=wrap;html=1;aspect=fixed;fillColor=#1A1A1A;" vertex="1" parent="1">
          <mxGeometry x="280" y="1880" width="80" height="80" as="geometry" />
        </mxCell>
        <mxCell id="kryiLPh3v4i8vplbUYYZ-348" value="" style="whiteSpace=wrap;html=1;aspect=fixed;fillColor=#999999;" vertex="1" parent="1">
          <mxGeometry x="360" y="1960" width="80" height="80" as="geometry" />
        </mxCell>
        <mxCell id="kryiLPh3v4i8vplbUYYZ-349" value="" style="whiteSpace=wrap;html=1;aspect=fixed;fillColor=#999999;" vertex="1" parent="1">
          <mxGeometry x="440" y="1960" width="80" height="80" as="geometry" />
        </mxCell>
        <mxCell id="kryiLPh3v4i8vplbUYYZ-350" value="" style="whiteSpace=wrap;html=1;aspect=fixed;fillColor=#999999;" vertex="1" parent="1">
          <mxGeometry x="520" y="1960" width="80" height="80" as="geometry" />
        </mxCell>
        <mxCell id="kryiLPh3v4i8vplbUYYZ-351" value="" style="whiteSpace=wrap;html=1;aspect=fixed;fillColor=#1A1A1A;" vertex="1" parent="1">
          <mxGeometry x="600" y="1960" width="80" height="80" as="geometry" />
        </mxCell>
        <mxCell id="kryiLPh3v4i8vplbUYYZ-352" value="" style="whiteSpace=wrap;html=1;aspect=fixed;fillColor=#CC0000;" vertex="1" parent="1">
          <mxGeometry x="680" y="1960" width="80" height="80" as="geometry" />
        </mxCell>
        <mxCell id="kryiLPh3v4i8vplbUYYZ-353" value="" style="whiteSpace=wrap;html=1;aspect=fixed;fillColor=#CC0000;" vertex="1" parent="1">
          <mxGeometry x="760" y="1960" width="80" height="80" as="geometry" />
        </mxCell>
        <mxCell id="kryiLPh3v4i8vplbUYYZ-354" value="" style="whiteSpace=wrap;html=1;aspect=fixed;fillColor=#1A1A1A;" vertex="1" parent="1">
          <mxGeometry x="200" y="1960" width="80" height="80" as="geometry" />
        </mxCell>
        <mxCell id="kryiLPh3v4i8vplbUYYZ-355" value="" style="whiteSpace=wrap;html=1;aspect=fixed;fillColor=#999999;" vertex="1" parent="1">
          <mxGeometry x="280" y="1960" width="80" height="80" as="geometry" />
        </mxCell>
        <mxCell id="kryiLPh3v4i8vplbUYYZ-356" value="" style="whiteSpace=wrap;html=1;aspect=fixed;fillColor=#999999;" vertex="1" parent="1">
          <mxGeometry x="360" y="2040" width="80" height="80" as="geometry" />
        </mxCell>
        <mxCell id="kryiLPh3v4i8vplbUYYZ-357" value="" style="whiteSpace=wrap;html=1;aspect=fixed;fillColor=#999999;" vertex="1" parent="1">
          <mxGeometry x="440" y="2040" width="80" height="80" as="geometry" />
        </mxCell>
        <mxCell id="kryiLPh3v4i8vplbUYYZ-358" value="" style="whiteSpace=wrap;html=1;aspect=fixed;fillColor=#1A1A1A;" vertex="1" parent="1">
          <mxGeometry x="520" y="2040" width="80" height="80" as="geometry" />
        </mxCell>
        <mxCell id="kryiLPh3v4i8vplbUYYZ-359" value="" style="whiteSpace=wrap;html=1;aspect=fixed;fillColor=#1A1A1A;" vertex="1" parent="1">
          <mxGeometry x="600" y="2040" width="80" height="80" as="geometry" />
        </mxCell>
        <mxCell id="kryiLPh3v4i8vplbUYYZ-360" value="" style="whiteSpace=wrap;html=1;aspect=fixed;fillColor=#CC0000;" vertex="1" parent="1">
          <mxGeometry x="680" y="2040" width="80" height="80" as="geometry" />
        </mxCell>
        <mxCell id="kryiLPh3v4i8vplbUYYZ-361" value="" style="whiteSpace=wrap;html=1;aspect=fixed;fillColor=#CC0000;" vertex="1" parent="1">
          <mxGeometry x="760" y="2040" width="80" height="80" as="geometry" />
        </mxCell>
        <mxCell id="kryiLPh3v4i8vplbUYYZ-362" value="" style="whiteSpace=wrap;html=1;aspect=fixed;fillColor=#999999;" vertex="1" parent="1">
          <mxGeometry x="200" y="2040" width="80" height="80" as="geometry" />
        </mxCell>
        <mxCell id="kryiLPh3v4i8vplbUYYZ-363" value="" style="whiteSpace=wrap;html=1;aspect=fixed;fillColor=#999999;" vertex="1" parent="1">
          <mxGeometry x="280" y="2040" width="80" height="80" as="geometry" />
        </mxCell>
        <mxCell id="kryiLPh3v4i8vplbUYYZ-364" value="" style="whiteSpace=wrap;html=1;aspect=fixed;fillColor=#999999;" vertex="1" parent="1">
          <mxGeometry x="360" y="2120" width="80" height="80" as="geometry" />
        </mxCell>
        <mxCell id="kryiLPh3v4i8vplbUYYZ-365" value="" style="whiteSpace=wrap;html=1;aspect=fixed;fillColor=#1A1A1A;" vertex="1" parent="1">
          <mxGeometry x="440" y="2120" width="80" height="80" as="geometry" />
        </mxCell>
        <mxCell id="kryiLPh3v4i8vplbUYYZ-366" value="" style="whiteSpace=wrap;html=1;aspect=fixed;fillColor=#1A1A1A;" vertex="1" parent="1">
          <mxGeometry x="520" y="2120" width="80" height="80" as="geometry" />
        </mxCell>
        <mxCell id="kryiLPh3v4i8vplbUYYZ-367" value="" style="whiteSpace=wrap;html=1;aspect=fixed;fillColor=#1A1A1A;" vertex="1" parent="1">
          <mxGeometry x="600" y="2120" width="80" height="80" as="geometry" />
        </mxCell>
        <mxCell id="kryiLPh3v4i8vplbUYYZ-368" value="" style="whiteSpace=wrap;html=1;aspect=fixed;fillColor=#CC0000;" vertex="1" parent="1">
          <mxGeometry x="680" y="2120" width="80" height="80" as="geometry" />
        </mxCell>
        <mxCell id="kryiLPh3v4i8vplbUYYZ-369" value="" style="whiteSpace=wrap;html=1;aspect=fixed;fillColor=#CC0000;" vertex="1" parent="1">
          <mxGeometry x="760" y="2120" width="80" height="80" as="geometry" />
        </mxCell>
        <mxCell id="kryiLPh3v4i8vplbUYYZ-370" value="" style="whiteSpace=wrap;html=1;aspect=fixed;fillColor=#999999;" vertex="1" parent="1">
          <mxGeometry x="200" y="2120" width="80" height="80" as="geometry" />
        </mxCell>
        <mxCell id="kryiLPh3v4i8vplbUYYZ-371" value="" style="whiteSpace=wrap;html=1;aspect=fixed;fillColor=#999999;" vertex="1" parent="1">
          <mxGeometry x="280" y="2120" width="80" height="80" as="geometry" />
        </mxCell>
        <mxCell id="kryiLPh3v4i8vplbUYYZ-372" value="" style="whiteSpace=wrap;html=1;aspect=fixed;fillColor=#009900;" vertex="1" parent="1">
          <mxGeometry x="120" y="1320" width="80" height="80" as="geometry" />
        </mxCell>
        <mxCell id="kryiLPh3v4i8vplbUYYZ-373" value="" style="whiteSpace=wrap;html=1;aspect=fixed;fillColor=#009900;" vertex="1" parent="1">
          <mxGeometry x="-40" y="1320" width="80" height="80" as="geometry" />
        </mxCell>
        <mxCell id="kryiLPh3v4i8vplbUYYZ-374" value="" style="whiteSpace=wrap;html=1;aspect=fixed;fillColor=#009900;" vertex="1" parent="1">
          <mxGeometry x="40" y="1320" width="80" height="80" as="geometry" />
        </mxCell>
        <mxCell id="kryiLPh3v4i8vplbUYYZ-375" value="" style="whiteSpace=wrap;html=1;aspect=fixed;fillColor=#009900;" vertex="1" parent="1">
          <mxGeometry x="120" y="1400" width="80" height="80" as="geometry" />
        </mxCell>
        <mxCell id="kryiLPh3v4i8vplbUYYZ-376" value="" style="whiteSpace=wrap;html=1;aspect=fixed;fillColor=#009900;" vertex="1" parent="1">
          <mxGeometry x="-40" y="1400" width="80" height="80" as="geometry" />
        </mxCell>
        <mxCell id="kryiLPh3v4i8vplbUYYZ-377" value="" style="whiteSpace=wrap;html=1;aspect=fixed;fillColor=#009900;" vertex="1" parent="1">
          <mxGeometry x="40" y="1400" width="80" height="80" as="geometry" />
        </mxCell>
        <mxCell id="kryiLPh3v4i8vplbUYYZ-378" value="" style="whiteSpace=wrap;html=1;aspect=fixed;fillColor=#009900;" vertex="1" parent="1">
          <mxGeometry x="120" y="1480" width="80" height="80" as="geometry" />
        </mxCell>
        <mxCell id="kryiLPh3v4i8vplbUYYZ-379" value="" style="whiteSpace=wrap;html=1;aspect=fixed;fillColor=#009900;" vertex="1" parent="1">
          <mxGeometry x="-40" y="1480" width="80" height="80" as="geometry" />
        </mxCell>
        <mxCell id="kryiLPh3v4i8vplbUYYZ-380" value="" style="whiteSpace=wrap;html=1;aspect=fixed;fillColor=#009900;" vertex="1" parent="1">
          <mxGeometry x="40" y="1480" width="80" height="80" as="geometry" />
        </mxCell>
        <mxCell id="kryiLPh3v4i8vplbUYYZ-381" value="" style="whiteSpace=wrap;html=1;aspect=fixed;fillColor=#009900;" vertex="1" parent="1">
          <mxGeometry x="120" y="1560" width="80" height="80" as="geometry" />
        </mxCell>
        <mxCell id="kryiLPh3v4i8vplbUYYZ-382" value="" style="whiteSpace=wrap;html=1;aspect=fixed;fillColor=#009900;" vertex="1" parent="1">
          <mxGeometry x="-40" y="1560" width="80" height="80" as="geometry" />
        </mxCell>
        <mxCell id="kryiLPh3v4i8vplbUYYZ-383" value="" style="whiteSpace=wrap;html=1;aspect=fixed;fillColor=#009900;" vertex="1" parent="1">
          <mxGeometry x="40" y="1560" width="80" height="80" as="geometry" />
        </mxCell>
        <mxCell id="kryiLPh3v4i8vplbUYYZ-384" value="" style="whiteSpace=wrap;html=1;aspect=fixed;fillColor=#003300;" vertex="1" parent="1">
          <mxGeometry x="120" y="1640" width="80" height="80" as="geometry" />
        </mxCell>
        <mxCell id="kryiLPh3v4i8vplbUYYZ-385" value="" style="whiteSpace=wrap;html=1;aspect=fixed;fillColor=#009900;" vertex="1" parent="1">
          <mxGeometry x="-40" y="1640" width="80" height="80" as="geometry" />
        </mxCell>
        <mxCell id="kryiLPh3v4i8vplbUYYZ-386" value="" style="whiteSpace=wrap;html=1;aspect=fixed;fillColor=#009900;" vertex="1" parent="1">
          <mxGeometry x="40" y="1640" width="80" height="80" as="geometry" />
        </mxCell>
        <mxCell id="kryiLPh3v4i8vplbUYYZ-387" value="" style="whiteSpace=wrap;html=1;aspect=fixed;fillColor=#003300;" vertex="1" parent="1">
          <mxGeometry x="120" y="1720" width="80" height="80" as="geometry" />
        </mxCell>
        <mxCell id="kryiLPh3v4i8vplbUYYZ-388" value="" style="whiteSpace=wrap;html=1;aspect=fixed;fillColor=#009900;" vertex="1" parent="1">
          <mxGeometry x="-40" y="1720" width="80" height="80" as="geometry" />
        </mxCell>
        <mxCell id="kryiLPh3v4i8vplbUYYZ-389" value="" style="whiteSpace=wrap;html=1;aspect=fixed;fillColor=#009900;" vertex="1" parent="1">
          <mxGeometry x="40" y="1720" width="80" height="80" as="geometry" />
        </mxCell>
        <mxCell id="kryiLPh3v4i8vplbUYYZ-390" value="" style="whiteSpace=wrap;html=1;aspect=fixed;fillColor=#003300;" vertex="1" parent="1">
          <mxGeometry x="120" y="1800" width="80" height="80" as="geometry" />
        </mxCell>
        <mxCell id="kryiLPh3v4i8vplbUYYZ-391" value="" style="whiteSpace=wrap;html=1;aspect=fixed;fillColor=#009900;" vertex="1" parent="1">
          <mxGeometry x="-40" y="1800" width="80" height="80" as="geometry" />
        </mxCell>
        <mxCell id="kryiLPh3v4i8vplbUYYZ-392" value="" style="whiteSpace=wrap;html=1;aspect=fixed;fillColor=#009900;" vertex="1" parent="1">
          <mxGeometry x="40" y="1800" width="80" height="80" as="geometry" />
        </mxCell>
        <mxCell id="kryiLPh3v4i8vplbUYYZ-393" value="" style="whiteSpace=wrap;html=1;aspect=fixed;fillColor=#003300;" vertex="1" parent="1">
          <mxGeometry x="120" y="1880" width="80" height="80" as="geometry" />
        </mxCell>
        <mxCell id="kryiLPh3v4i8vplbUYYZ-394" value="" style="whiteSpace=wrap;html=1;aspect=fixed;strokeColor=#000000;fillColor=#009900;" vertex="1" parent="1">
          <mxGeometry x="-40" y="1880" width="80" height="80" as="geometry" />
        </mxCell>
        <mxCell id="kryiLPh3v4i8vplbUYYZ-395" value="" style="whiteSpace=wrap;html=1;aspect=fixed;fillColor=#003300;" vertex="1" parent="1">
          <mxGeometry x="40" y="1880" width="80" height="80" as="geometry" />
        </mxCell>
        <mxCell id="kryiLPh3v4i8vplbUYYZ-396" value="" style="whiteSpace=wrap;html=1;aspect=fixed;fillColor=#1A1A1A;" vertex="1" parent="1">
          <mxGeometry x="120" y="1960" width="80" height="80" as="geometry" />
        </mxCell>
        <mxCell id="kryiLPh3v4i8vplbUYYZ-397" value="" style="whiteSpace=wrap;html=1;aspect=fixed;fillColor=#003300;" vertex="1" parent="1">
          <mxGeometry x="-40" y="1960" width="80" height="80" as="geometry" />
        </mxCell>
        <mxCell id="kryiLPh3v4i8vplbUYYZ-398" value="" style="whiteSpace=wrap;html=1;aspect=fixed;fillColor=#003300;" vertex="1" parent="1">
          <mxGeometry x="40" y="1960" width="80" height="80" as="geometry" />
        </mxCell>
        <mxCell id="kryiLPh3v4i8vplbUYYZ-399" value="" style="whiteSpace=wrap;html=1;aspect=fixed;fillColor=#1A1A1A;" vertex="1" parent="1">
          <mxGeometry x="120" y="2040" width="80" height="80" as="geometry" />
        </mxCell>
        <mxCell id="kryiLPh3v4i8vplbUYYZ-400" value="" style="whiteSpace=wrap;html=1;aspect=fixed;fillColor=#000000;" vertex="1" parent="1">
          <mxGeometry x="-40" y="2040" width="80" height="80" as="geometry" />
        </mxCell>
        <mxCell id="kryiLPh3v4i8vplbUYYZ-401" value="" style="whiteSpace=wrap;html=1;aspect=fixed;fillColor=#1A1A1A;" vertex="1" parent="1">
          <mxGeometry x="40" y="2040" width="80" height="80" as="geometry" />
        </mxCell>
        <mxCell id="kryiLPh3v4i8vplbUYYZ-402" value="" style="whiteSpace=wrap;html=1;aspect=fixed;fillColor=#999999;" vertex="1" parent="1">
          <mxGeometry x="120" y="2120" width="80" height="80" as="geometry" />
        </mxCell>
        <mxCell id="kryiLPh3v4i8vplbUYYZ-403" value="" style="whiteSpace=wrap;html=1;aspect=fixed;fillColor=#999999;" vertex="1" parent="1">
          <mxGeometry x="-40" y="2120" width="80" height="80" as="geometry" />
        </mxCell>
        <mxCell id="kryiLPh3v4i8vplbUYYZ-404" value="" style="whiteSpace=wrap;html=1;aspect=fixed;fillColor=#999999;" vertex="1" parent="1">
          <mxGeometry x="40" y="2120" width="80" height="80" as="geometry" />
        </mxCell>
        <mxCell id="kryiLPh3v4i8vplbUYYZ-405" value="" style="shape=cube;whiteSpace=wrap;html=1;boundedLbl=1;backgroundOutline=1;darkOpacity=0.05;darkOpacity2=0.1;size=40;" vertex="1" parent="1">
          <mxGeometry x="960" y="360" width="180" height="840" as="geometry" />
        </mxCell>
        <mxCell id="kryiLPh3v4i8vplbUYYZ-406" value="\(\mathrm{Convolution}\)" style="text;html=1;align=center;verticalAlign=middle;whiteSpace=wrap;rounded=0;fontSize=60;rotation=-90;" vertex="1" parent="1">
          <mxGeometry x="890" y="770" width="380" height="60" as="geometry" />
        </mxCell>
        <mxCell id="kryiLPh3v4i8vplbUYYZ-407" value="" style="shape=cube;whiteSpace=wrap;html=1;boundedLbl=1;backgroundOutline=1;darkOpacity=0.05;darkOpacity2=0.1;size=40;" vertex="1" parent="1">
          <mxGeometry x="1230" y="360" width="180" height="890" as="geometry" />
        </mxCell>
        <mxCell id="kryiLPh3v4i8vplbUYYZ-408" value="\(\mathrm{Convolution}\)" style="text;html=1;align=center;verticalAlign=middle;whiteSpace=wrap;rounded=0;fontSize=60;rotation=-90;" vertex="1" parent="1">
          <mxGeometry x="1160" y="810" width="380" height="60" as="geometry" />
        </mxCell>
        <mxCell id="kryiLPh3v4i8vplbUYYZ-409" value="\(\mathrm{\dots}\)" style="text;html=1;align=center;verticalAlign=middle;whiteSpace=wrap;rounded=0;fontSize=60;rotation=0;" vertex="1" parent="1">
          <mxGeometry x="1480" y="770" width="110" height="60" as="geometry" />
        </mxCell>
        <mxCell id="kryiLPh3v4i8vplbUYYZ-410" value="" style="shape=cube;whiteSpace=wrap;html=1;boundedLbl=1;backgroundOutline=1;darkOpacity=0.05;darkOpacity2=0.1;size=40;" vertex="1" parent="1">
          <mxGeometry x="1650" y="360" width="180" height="890" as="geometry" />
        </mxCell>
        <mxCell id="kryiLPh3v4i8vplbUYYZ-411" value="\(\mathrm{Convolution}\)" style="text;html=1;align=center;verticalAlign=middle;whiteSpace=wrap;rounded=0;fontSize=60;rotation=-90;" vertex="1" parent="1">
          <mxGeometry x="1580" y="810" width="380" height="60" as="geometry" />
        </mxCell>
        <mxCell id="kryiLPh3v4i8vplbUYYZ-412" value="" style="shape=cube;whiteSpace=wrap;html=1;boundedLbl=1;backgroundOutline=1;darkOpacity=0.05;darkOpacity2=0.1;size=40;" vertex="1" parent="1">
          <mxGeometry x="1920" y="360" width="180" height="890" as="geometry" />
        </mxCell>
        <mxCell id="kryiLPh3v4i8vplbUYYZ-413" value="\(\mathrm{Convolution}\)" style="text;html=1;align=center;verticalAlign=middle;whiteSpace=wrap;rounded=0;fontSize=60;rotation=-90;" vertex="1" parent="1">
          <mxGeometry x="1850" y="810" width="380" height="60" as="geometry" />
        </mxCell>
        <mxCell id="kryiLPh3v4i8vplbUYYZ-414" value="" style="rounded=0;whiteSpace=wrap;html=1;" vertex="1" parent="1">
          <mxGeometry x="2230" y="370" width="150" height="880" as="geometry" />
        </mxCell>
        <mxCell id="kryiLPh3v4i8vplbUYYZ-415" value="\(\mathrm{Feature~vector}\)" style="text;html=1;align=center;verticalAlign=middle;whiteSpace=wrap;rounded=0;fontSize=60;rotation=-90;" vertex="1" parent="1">
          <mxGeometry x="2075" y="765" width="470" height="60" as="geometry" />
        </mxCell>
        <mxCell id="kryiLPh3v4i8vplbUYYZ-417" value="\(\mathrm{Similarity~value}\)" style="text;html=1;align=center;verticalAlign=middle;whiteSpace=wrap;rounded=0;fontSize=60;rotation=0;" vertex="1" parent="1">
          <mxGeometry x="3000" y="1260" width="470" height="60" as="geometry" />
        </mxCell>
        <mxCell id="kryiLPh3v4i8vplbUYYZ-442" style="edgeStyle=orthogonalEdgeStyle;rounded=0;orthogonalLoop=1;jettySize=auto;html=1;exitX=1;exitY=0.5;exitDx=0;exitDy=0;strokeWidth=13;" edge="1" parent="1">
          <mxGeometry relative="1" as="geometry">
            <mxPoint x="1140" y="800" as="sourcePoint" />
            <mxPoint x="1230" y="801" as="targetPoint" />
          </mxGeometry>
        </mxCell>
        <mxCell id="kryiLPh3v4i8vplbUYYZ-443" style="edgeStyle=orthogonalEdgeStyle;rounded=0;orthogonalLoop=1;jettySize=auto;html=1;exitX=1;exitY=0.5;exitDx=0;exitDy=0;strokeWidth=13;entryX=0;entryY=0.524;entryDx=0;entryDy=0;entryPerimeter=0;" edge="1" parent="1" target="kryiLPh3v4i8vplbUYYZ-405">
          <mxGeometry relative="1" as="geometry">
            <mxPoint x="840" y="799.25" as="sourcePoint" />
            <mxPoint x="930" y="800.25" as="targetPoint" />
          </mxGeometry>
        </mxCell>
        <mxCell id="kryiLPh3v4i8vplbUYYZ-445" style="edgeStyle=orthogonalEdgeStyle;rounded=0;orthogonalLoop=1;jettySize=auto;html=1;exitX=1;exitY=0.5;exitDx=0;exitDy=0;strokeWidth=13;" edge="1" parent="1">
          <mxGeometry relative="1" as="geometry">
            <mxPoint x="1830" y="800" as="sourcePoint" />
            <mxPoint x="1920" y="801" as="targetPoint" />
          </mxGeometry>
        </mxCell>
        <mxCell id="kryiLPh3v4i8vplbUYYZ-446" style="edgeStyle=orthogonalEdgeStyle;rounded=0;orthogonalLoop=1;jettySize=auto;html=1;exitX=1.011;exitY=0.495;exitDx=0;exitDy=0;strokeWidth=13;entryX=-0.018;entryY=0.488;entryDx=0;entryDy=0;entryPerimeter=0;exitPerimeter=0;" edge="1" parent="1" source="kryiLPh3v4i8vplbUYYZ-412" target="kryiLPh3v4i8vplbUYYZ-414">
          <mxGeometry relative="1" as="geometry">
            <mxPoint x="2110" y="800" as="sourcePoint" />
            <mxPoint x="2200" y="801" as="targetPoint" />
          </mxGeometry>
        </mxCell>
        <mxCell id="kryiLPh3v4i8vplbUYYZ-449" value="" style="endArrow=classic;html=1;rounded=0;strokeWidth=13;entryX=0.5;entryY=0;entryDx=0;entryDy=0;" edge="1" parent="1" target="kryiLPh3v4i8vplbUYYZ-466">
          <mxGeometry width="50" height="50" relative="1" as="geometry">
            <mxPoint x="2390" y="800" as="sourcePoint" />
            <mxPoint x="2650" y="1250" as="targetPoint" />
          </mxGeometry>
        </mxCell>
        <mxCell id="kryiLPh3v4i8vplbUYYZ-450" value="" style="endArrow=classic;html=1;rounded=0;strokeWidth=13;entryX=0.5;entryY=1;entryDx=0;entryDy=0;" edge="1" parent="1" target="kryiLPh3v4i8vplbUYYZ-466">
          <mxGeometry width="50" height="50" relative="1" as="geometry">
            <mxPoint x="2390" y="1750" as="sourcePoint" />
            <mxPoint x="2650" y="1300" as="targetPoint" />
          </mxGeometry>
        </mxCell>
        <mxCell id="kryiLPh3v4i8vplbUYYZ-451" value="" style="shape=cube;whiteSpace=wrap;html=1;boundedLbl=1;backgroundOutline=1;darkOpacity=0.05;darkOpacity2=0.1;size=40;" vertex="1" parent="1">
          <mxGeometry x="960" y="1320" width="180" height="840" as="geometry" />
        </mxCell>
        <mxCell id="kryiLPh3v4i8vplbUYYZ-452" value="\(\mathrm{Convolution}\)" style="text;html=1;align=center;verticalAlign=middle;whiteSpace=wrap;rounded=0;fontSize=60;rotation=-90;" vertex="1" parent="1">
          <mxGeometry x="890" y="1730" width="380" height="60" as="geometry" />
        </mxCell>
        <mxCell id="kryiLPh3v4i8vplbUYYZ-453" value="" style="shape=cube;whiteSpace=wrap;html=1;boundedLbl=1;backgroundOutline=1;darkOpacity=0.05;darkOpacity2=0.1;size=40;" vertex="1" parent="1">
          <mxGeometry x="1230" y="1320" width="180" height="890" as="geometry" />
        </mxCell>
        <mxCell id="kryiLPh3v4i8vplbUYYZ-454" value="\(\mathrm{Convolution}\)" style="text;html=1;align=center;verticalAlign=middle;whiteSpace=wrap;rounded=0;fontSize=60;rotation=-90;" vertex="1" parent="1">
          <mxGeometry x="1160" y="1770" width="380" height="60" as="geometry" />
        </mxCell>
        <mxCell id="kryiLPh3v4i8vplbUYYZ-455" value="\(\mathrm{\dots}\)" style="text;html=1;align=center;verticalAlign=middle;whiteSpace=wrap;rounded=0;fontSize=60;rotation=0;" vertex="1" parent="1">
          <mxGeometry x="1480" y="1730" width="110" height="60" as="geometry" />
        </mxCell>
        <mxCell id="kryiLPh3v4i8vplbUYYZ-456" value="" style="shape=cube;whiteSpace=wrap;html=1;boundedLbl=1;backgroundOutline=1;darkOpacity=0.05;darkOpacity2=0.1;size=40;" vertex="1" parent="1">
          <mxGeometry x="1650" y="1320" width="180" height="890" as="geometry" />
        </mxCell>
        <mxCell id="kryiLPh3v4i8vplbUYYZ-457" value="\(\mathrm{Convolution}\)" style="text;html=1;align=center;verticalAlign=middle;whiteSpace=wrap;rounded=0;fontSize=60;rotation=-90;" vertex="1" parent="1">
          <mxGeometry x="1580" y="1770" width="380" height="60" as="geometry" />
        </mxCell>
        <mxCell id="kryiLPh3v4i8vplbUYYZ-458" value="" style="shape=cube;whiteSpace=wrap;html=1;boundedLbl=1;backgroundOutline=1;darkOpacity=0.05;darkOpacity2=0.1;size=40;" vertex="1" parent="1">
          <mxGeometry x="1920" y="1320" width="180" height="890" as="geometry" />
        </mxCell>
        <mxCell id="kryiLPh3v4i8vplbUYYZ-459" value="\(\mathrm{Convolution}\)" style="text;html=1;align=center;verticalAlign=middle;whiteSpace=wrap;rounded=0;fontSize=60;rotation=-90;" vertex="1" parent="1">
          <mxGeometry x="1850" y="1770" width="380" height="60" as="geometry" />
        </mxCell>
        <mxCell id="kryiLPh3v4i8vplbUYYZ-460" value="" style="rounded=0;whiteSpace=wrap;html=1;" vertex="1" parent="1">
          <mxGeometry x="2230" y="1330" width="150" height="880" as="geometry" />
        </mxCell>
        <mxCell id="kryiLPh3v4i8vplbUYYZ-461" value="\(\mathrm{Feature~vector}\)" style="text;html=1;align=center;verticalAlign=middle;whiteSpace=wrap;rounded=0;fontSize=60;rotation=-90;" vertex="1" parent="1">
          <mxGeometry x="2075" y="1725" width="470" height="60" as="geometry" />
        </mxCell>
        <mxCell id="kryiLPh3v4i8vplbUYYZ-462" style="edgeStyle=orthogonalEdgeStyle;rounded=0;orthogonalLoop=1;jettySize=auto;html=1;exitX=1;exitY=0.5;exitDx=0;exitDy=0;strokeWidth=13;" edge="1" parent="1">
          <mxGeometry relative="1" as="geometry">
            <mxPoint x="1140" y="1760" as="sourcePoint" />
            <mxPoint x="1230" y="1761" as="targetPoint" />
          </mxGeometry>
        </mxCell>
        <mxCell id="kryiLPh3v4i8vplbUYYZ-463" style="edgeStyle=orthogonalEdgeStyle;rounded=0;orthogonalLoop=1;jettySize=auto;html=1;exitX=1;exitY=0.5;exitDx=0;exitDy=0;strokeWidth=13;entryX=0;entryY=0.524;entryDx=0;entryDy=0;entryPerimeter=0;" edge="1" parent="1" target="kryiLPh3v4i8vplbUYYZ-451">
          <mxGeometry relative="1" as="geometry">
            <mxPoint x="840" y="1759.25" as="sourcePoint" />
            <mxPoint x="930" y="1760.25" as="targetPoint" />
          </mxGeometry>
        </mxCell>
        <mxCell id="kryiLPh3v4i8vplbUYYZ-464" style="edgeStyle=orthogonalEdgeStyle;rounded=0;orthogonalLoop=1;jettySize=auto;html=1;exitX=1;exitY=0.5;exitDx=0;exitDy=0;strokeWidth=13;" edge="1" parent="1">
          <mxGeometry relative="1" as="geometry">
            <mxPoint x="1830" y="1760" as="sourcePoint" />
            <mxPoint x="1920" y="1761" as="targetPoint" />
          </mxGeometry>
        </mxCell>
        <mxCell id="kryiLPh3v4i8vplbUYYZ-465" style="edgeStyle=orthogonalEdgeStyle;rounded=0;orthogonalLoop=1;jettySize=auto;html=1;exitX=1.011;exitY=0.495;exitDx=0;exitDy=0;strokeWidth=13;entryX=-0.018;entryY=0.488;entryDx=0;entryDy=0;entryPerimeter=0;exitPerimeter=0;" edge="1" parent="1" source="kryiLPh3v4i8vplbUYYZ-458" target="kryiLPh3v4i8vplbUYYZ-460">
          <mxGeometry relative="1" as="geometry">
            <mxPoint x="2110" y="1760" as="sourcePoint" />
            <mxPoint x="2200" y="1761" as="targetPoint" />
          </mxGeometry>
        </mxCell>
        <mxCell id="kryiLPh3v4i8vplbUYYZ-466" value="&lt;div&gt;\(\mathrm{dot}\)&lt;/div&gt;&lt;div&gt;\(\mathrm{product}\)&lt;/div&gt;" style="text;html=1;align=center;verticalAlign=middle;whiteSpace=wrap;rounded=0;fontSize=60;rotation=0;" vertex="1" parent="1">
          <mxGeometry x="2540" y="1205" width="220" height="170" as="geometry" />
        </mxCell>
        <mxCell id="kryiLPh3v4i8vplbUYYZ-467" value="" style="endArrow=classic;html=1;rounded=0;strokeWidth=13;" edge="1" parent="1">
          <mxGeometry width="50" height="50" relative="1" as="geometry">
            <mxPoint x="2790" y="1290" as="sourcePoint" />
            <mxPoint x="2970" y="1290" as="targetPoint" />
          </mxGeometry>
        </mxCell>
        <mxCell id="kryiLPh3v4i8vplbUYYZ-468" value="\(\mathrm{Left ~Window}\)" style="text;html=1;align=center;verticalAlign=middle;whiteSpace=wrap;rounded=0;fontSize=60;rotation=0;" vertex="1" parent="1">
          <mxGeometry x="165" y="270" width="470" height="60" as="geometry" />
        </mxCell>
        <mxCell id="kryiLPh3v4i8vplbUYYZ-469" value="\(\mathrm{Right ~Window}\)" style="text;html=1;align=center;verticalAlign=middle;whiteSpace=wrap;rounded=0;fontSize=60;rotation=0;" vertex="1" parent="1">
          <mxGeometry x="165" y="2240" width="470" height="60" as="geometry" />
        </mxCell>
      </root>
    </mxGraphModel>
  </diagram>
</mxfile>
